<svg width="32" height="32" viewBox="0 0 32 32" fill="none" xmlns="http://www.w3.org/2000/svg">
<path d="M16 1.66675C8.07671 1.67541 1.66004 8.10541 1.66871 16.0287C1.67074 18.4331 2.27758 20.7984 3.43338 22.9067L2.33338 29.6667L9.09338 28.5667C16.0334 32.3734 24.7467 29.8341 28.5534 22.8934C32.36 15.9527 29.8214 7.24075 22.8807 3.43341C20.7719 2.2766 18.4053 1.66905 16 1.66675ZM8.83338 8.18008H12.74C12.9169 8.18008 13.0864 8.25032 13.2114 8.37534C13.3365 8.50037 13.4067 8.66994 13.4067 8.84675C13.3848 9.73582 13.5342 10.6208 13.8467 11.4534C13.9813 11.7321 14.0109 12.05 13.9301 12.3488C13.8492 12.6476 13.6634 12.9072 13.4067 13.0801L12.04 14.4134C12.646 15.5968 13.4384 16.675 14.3867 17.6067C15.3109 18.5705 16.3848 19.3787 17.5667 20.0001L18.9 18.6334C19.5667 17.9667 19.8734 17.9667 20.5267 18.1934C21.3593 18.5059 22.2443 18.6553 23.1334 18.6334C23.3076 18.6415 23.4725 18.7144 23.5958 18.8377C23.7191 18.961 23.7919 19.1259 23.8 19.3001V23.2067C23.7919 23.3809 23.7191 23.5458 23.5958 23.6691C23.4725 23.7925 23.3076 23.8653 23.1334 23.8734C19.2118 23.7026 15.4945 22.0768 12.7067 19.3134C9.93896 16.5286 8.31247 12.8095 8.14671 8.88675C8.1483 8.70325 8.22054 8.52742 8.34843 8.39581C8.47631 8.2642 8.65 8.18694 8.83338 8.18008Z" stroke="white" stroke-linecap="round" stroke-linejoin="round"/>
</svg>
