<svg width="32" height="32" viewBox="0 0 32 32" fill="none" xmlns="http://www.w3.org/2000/svg">
<path d="M6.66663 6.66675H24C25.0608 6.66675 26.0782 7.08818 26.8284 7.83832C27.5785 8.58847 28 9.60588 28 10.6667V22.6667C28 23.7276 27.5785 24.745 26.8284 25.4952C26.0782 26.2453 25.0608 26.6667 24 26.6667H6.66663C5.60576 26.6667 4.58834 26.2453 3.8382 25.4952C3.08805 24.745 2.66663 23.7276 2.66663 22.6667V10.6667C2.66663 9.60588 3.08805 8.58847 3.8382 7.83832C4.58834 7.08818 5.60576 6.66675 6.66663 6.66675ZM6.66663 8.00008C5.99996 8.00008 5.41329 8.22675 4.95996 8.62675L15.3333 15.3334L25.7066 8.62675C25.2533 8.22675 24.6666 8.00008 24 8.00008H6.66663ZM15.3333 16.9467L4.17329 9.70675C4.06663 10.0001 3.99996 10.3334 3.99996 10.6667V22.6667C3.99996 23.374 4.28091 24.0523 4.78101 24.5524C5.2811 25.0525 5.95938 25.3334 6.66663 25.3334H24C24.7072 25.3334 25.3855 25.0525 25.8856 24.5524C26.3857 24.0523 26.6666 23.374 26.6666 22.6667V10.6667C26.6666 10.3334 26.6 10.0001 26.4933 9.70675L15.3333 16.9467Z" fill="white"/>
</svg>
