<svg width="138" height="72" viewBox="0 0 138 72" fill="none" xmlns="http://www.w3.org/2000/svg">
<path d="M0 0C4.21581 0 8.43163 0 12.7752 0C15.3883 3.91966 15.3883 3.91966 15.3616 6.27843C15.3614 6.80854 15.3611 7.33866 15.3608 7.88483C15.3489 8.43122 15.337 8.97762 15.3248 9.54056C15.3213 10.3058 15.3213 10.3058 15.3177 11.0866C15.3056 12.9803 15.2732 14.8739 15.2431 16.7674C15.1952 21.0072 15.1473 25.247 15.098 29.6152C26.2124 29.6152 37.3268 29.6152 48.778 29.6152C48.7091 20.955 48.7091 20.955 48.6211 12.295C48.616 11.2067 48.6115 10.1185 48.6079 9.03019C48.5945 8.18734 48.5945 8.18734 48.5809 7.32746C48.5806 6.5145 48.5806 6.5145 48.5802 5.68513C48.5744 4.983 48.5744 4.983 48.5685 4.26669C48.778 2.90345 48.778 2.90345 50.5201 0C54.9275 0 59.335 0 63.876 0C63.876 23.5702 63.876 47.1405 63.876 71.4249C59.6602 71.4249 55.4443 71.4249 51.1008 71.4249C48.4877 68.1586 48.4877 68.1586 48.5143 65.7398C48.5146 65.1978 48.5149 64.6559 48.5152 64.0975C48.533 63.2546 48.533 63.2546 48.5512 62.3947C48.5535 61.8726 48.5559 61.3504 48.5583 60.8124C48.5704 58.8695 48.6028 56.9268 48.6328 54.9841C48.6807 50.6366 48.7287 46.289 48.778 41.8097C37.6636 41.8097 26.5492 41.8097 15.098 41.8097C15.1897 50.2527 15.1897 50.2527 15.3072 58.6954C15.314 59.7584 15.3199 60.8214 15.3248 61.8844C15.3367 62.4308 15.3486 62.9772 15.3608 63.5401C15.3611 64.0702 15.3614 64.6003 15.3616 65.1465C15.3668 65.603 15.372 66.0595 15.3773 66.5298C15.098 67.9408 15.098 67.9408 12.7752 71.4249C8.55938 71.4249 4.34357 71.4249 0 71.4249C0 47.8547 0 24.2845 0 0Z" fill="white"/>
<path d="M48.778 41.8096C49.5445 41.8096 50.311 41.8096 51.1008 41.8096C51.1008 51.391 51.1008 60.9724 51.1008 70.8441C48.778 68.5213 48.778 68.5213 48.4987 67.2279C48.5038 66.7586 48.509 66.2892 48.5143 65.8056C48.5145 65.271 48.5147 64.7364 48.5148 64.1855C48.5268 63.6132 48.5388 63.0409 48.5512 62.4513C48.5545 61.8617 48.5578 61.2721 48.5611 60.6646C48.5741 58.7829 48.6033 56.9018 48.6328 55.0203C48.6445 53.744 48.6551 52.4677 48.6646 51.1914C48.6902 48.0639 48.7291 44.9368 48.778 41.8096Z" fill="white"/>
<path d="M12.7752 41.8096C13.5417 41.8096 14.3082 41.8096 15.098 41.8096C15.1422 45.4778 15.1727 49.146 15.1936 52.8145C15.2024 54.0621 15.2143 55.3097 15.2294 56.5572C15.2505 58.3518 15.2604 60.1462 15.2681 61.9409C15.2771 62.4975 15.2861 63.0541 15.2953 63.6276C15.296 66.493 15.2771 68.5371 13.3559 70.8441C13.1643 70.8441 12.9726 70.8441 12.7752 70.8441C12.7752 61.2627 12.7752 51.6813 12.7752 41.8096Z" fill="white"/>
<path d="M12.7752 1.74194C14.5173 2.32263 14.5173 2.32263 15.098 3.48402C15.1499 4.32623 15.1662 5.1708 15.1639 6.01461C15.1638 6.79923 15.1638 6.79923 15.1637 7.59969C15.1607 8.16528 15.1578 8.73088 15.1547 9.31361C15.1538 9.89197 15.153 10.4703 15.1522 11.0662C15.1489 12.9182 15.1416 14.7702 15.1342 16.6221C15.1313 17.8758 15.1287 19.1294 15.1263 20.383C15.1199 23.4604 15.1102 26.5377 15.098 29.6151C14.3314 29.6151 13.5649 29.6151 12.7752 29.6151C12.7752 20.417 12.7752 11.2188 12.7752 1.74194Z" fill="white"/>
<path d="M49.3588 2.32251C49.742 2.32251 50.1253 2.32251 50.5201 2.32251C50.5201 11.1374 50.5201 19.9523 50.5201 29.0343C50.1369 29.0343 49.7536 29.0343 49.3588 29.0343C49.2613 25.3235 49.1684 21.6127 49.0788 17.9018C49.0477 16.6383 49.0156 15.3748 48.9824 14.1114C48.9349 12.2997 48.8913 10.4879 48.8484 8.67608C48.8327 8.10749 48.817 7.5389 48.8008 6.95309C48.7891 6.42997 48.7775 5.90685 48.7655 5.36787C48.7538 4.90495 48.7422 4.44202 48.7303 3.96507C48.7781 2.9032 48.7781 2.9032 49.3588 2.32251Z" fill="white"/>
<path d="M78.8215 0.257568C98.0774 0.257568 117.333 0.257568 137.173 0.257568C137.173 3.2704 137.173 6.28324 137.173 9.38737C130.492 9.38737 123.812 9.38737 116.928 9.38737C116.928 12.4002 116.928 15.413 116.928 18.5172C122.43 18.5172 127.932 18.5172 133.6 18.5172C133.6 19.1721 133.6 19.8271 133.6 20.5019C128.099 20.5019 122.597 20.5019 116.928 20.5019C116.928 21.0259 116.928 21.5498 116.928 22.0897C122.43 22.0897 127.932 22.0897 133.6 22.0897C133.6 22.7447 133.6 23.3996 133.6 24.0744C128.099 24.0744 122.597 24.0744 116.928 24.0744C116.928 24.5984 116.928 25.1224 116.928 25.6622C122.43 25.6622 127.932 25.6622 133.6 25.6622C133.6 26.3172 133.6 26.9722 133.6 27.647C128.099 27.647 122.597 27.647 116.928 27.647C116.928 32.4937 116.928 37.3404 116.928 42.334C116.273 42.334 115.619 42.334 114.944 42.334C114.813 29.8897 114.682 17.4454 114.547 4.62399C113.237 6.98186 111.927 9.33973 110.577 11.7691C109.69 13.3112 108.8 14.85 107.898 16.3836C107.427 17.1873 106.956 17.991 106.485 18.7947C106.247 19.2012 106.009 19.6077 105.763 20.0265C104.987 21.3521 104.215 22.6796 103.443 24.0078C103.188 24.4467 102.933 24.8857 102.67 25.338C102.177 26.1865 101.684 27.0353 101.191 27.8844C100.97 28.264 100.749 28.6436 100.522 29.0347C100.326 29.3711 100.131 29.7075 99.9298 30.0541C99.4628 30.8225 99.4628 30.8225 99.0658 31.2195C98.1397 31.2357 97.2132 31.2363 96.2872 31.2195C96.16 30.9928 96.0327 30.7661 95.9017 30.5326C93.432 26.1367 90.944 21.7529 88.3978 17.4007C88.172 17.0145 87.9461 16.6283 87.7134 16.2304C87.4839 15.8378 87.2543 15.4452 87.0178 15.0408C85.5726 12.5693 84.1296 10.0965 82.694 7.61938C82.3035 6.94634 81.9116 6.27412 81.5197 5.60192C81.2822 5.19171 81.0447 4.78149 80.8 4.35884C80.5901 3.9975 80.3802 3.63615 80.1639 3.26385C79.6154 2.24231 79.6154 2.24231 78.8215 0.257568Z" fill="white"/>
<path d="M81.2032 0.257568C92.2066 0.257568 103.21 0.257568 114.547 0.257568C112.977 3.39697 111.394 6.4285 109.61 9.43698C109.122 10.2659 108.635 11.0949 108.148 11.9241C107.771 12.5646 107.771 12.5646 107.386 13.2181C105.808 15.9139 104.254 18.6243 102.698 21.3332C101.249 23.8511 99.7766 26.3528 98.2719 28.8378C96.7071 28.3162 96.5648 27.7309 95.7709 26.3057C95.5166 25.8543 95.2624 25.4029 95.0004 24.9378C94.7264 24.4433 94.4524 23.9487 94.1784 23.4542C93.7505 22.6917 93.3212 21.9299 92.892 21.1681C92.5997 20.6491 92.3079 20.1299 92.0165 19.6105C90.6384 17.1548 89.2254 14.7201 87.8024 12.29C87.5766 11.9031 87.3507 11.5162 87.118 11.1175C86.0672 9.31936 85.0109 7.52473 83.9446 5.73576C83.757 5.42014 83.5694 5.10452 83.3761 4.77934C83.0295 4.197 82.6813 3.61553 82.3314 3.03514C81.2032 1.13961 81.2032 1.13961 81.2032 0.257568Z" fill="#898989" fill-opacity="0.2"/>
<path d="M69.6917 0.257324C70.4776 0.257324 71.2636 0.257324 72.0734 0.257324C72.2246 0.520077 72.3759 0.78283 72.5318 1.05355C75.2783 5.82294 78.0294 10.5894 80.8062 15.3413C81.4888 16.511 82.1712 17.6808 82.8534 18.8507C83.3707 19.7375 83.8883 20.6242 84.4063 21.5107C85.1069 22.7103 85.8057 23.9111 86.5032 25.1125C86.9026 25.7992 87.3036 26.485 87.7047 27.1707C87.9447 27.5846 88.1847 27.9986 88.432 28.4251C88.646 28.7927 88.8601 29.1603 89.0807 29.539C89.5391 30.4254 89.5391 30.4254 89.5391 31.2192C88.632 31.3433 88.632 31.3433 87.5543 31.2192C86.8612 30.4254 86.8612 30.4254 86.1898 29.2345C86.0596 29.0092 85.9294 28.7839 85.7953 28.5518C85.4924 28.0266 85.1927 27.4996 84.8955 26.9712C84.3231 25.9606 83.7365 24.959 83.1476 23.9579C81.1367 20.5365 79.1485 17.1021 77.167 13.6636C77.031 13.4276 76.895 13.1916 76.7548 12.9485C76.0932 11.8002 75.4322 10.6515 74.772 9.50235C74.5344 9.08926 74.2968 8.67616 74.0519 8.25055C73.737 7.70229 73.737 7.70229 73.4158 7.14295C72.991 6.42167 72.5377 5.71717 72.0734 5.0207C71.9424 17.334 71.8114 29.6473 71.6764 42.3338C71.0215 42.3338 70.3665 42.3338 69.6917 42.3338C69.6917 28.4486 69.6917 14.5633 69.6917 0.257324Z" fill="white"/>
<path d="M74.0581 0.25755C75.1001 0.0342671 75.1001 0.0342671 76.4398 0.25755C78.5128 2.62645 79.9178 5.72491 81.4264 8.46941C83.2438 11.7463 85.0915 14.9998 87.0085 18.2194C88.7771 21.1915 90.5243 24.1744 92.2432 27.1756C92.4505 27.5362 92.6578 27.8968 92.8714 28.2683C93.1538 28.7628 93.1538 28.7628 93.4418 29.2673C93.6086 29.5589 93.7753 29.8504 93.947 30.1508C94.3024 30.8225 94.3024 30.8225 94.3024 31.2195C93.189 31.327 93.189 31.327 91.9207 31.2195C91.2347 30.5087 91.2347 30.5087 90.6818 29.4983C90.4695 29.1217 90.2571 28.7451 90.0383 28.3571C89.8162 27.9426 89.5942 27.5282 89.3654 27.1011C88.8739 26.2214 88.3824 25.3417 87.8908 24.4621C87.6391 24.0042 87.3874 23.5464 87.1281 23.0747C85.9116 20.8761 84.647 18.7058 83.3863 16.5324C82.8926 15.6755 82.399 14.8186 81.9055 13.9615C80.1485 10.9158 78.3742 7.88002 76.5948 4.84726C76.3774 4.47577 76.1599 4.10428 75.9358 3.72154C75.7451 3.39642 75.5543 3.07131 75.3577 2.73634C74.8954 1.92181 74.4678 1.09959 74.0581 0.25755Z" fill="white"/>
<path d="M112.562 9.78418C112.693 9.78418 112.824 9.78418 112.959 9.78418C112.959 20.5256 112.959 31.267 112.959 42.3339C112.304 42.3339 111.649 42.3339 110.974 42.3339C110.937 38.5002 110.909 34.6667 110.892 30.8329C110.884 29.0525 110.872 27.2723 110.854 25.492C110.837 23.7727 110.828 22.0535 110.824 20.3342C110.821 19.6795 110.815 19.0247 110.806 18.3701C110.795 17.4503 110.793 16.531 110.794 15.6112C110.789 14.8271 110.789 14.8271 110.783 14.0272C111.017 12.2346 111.582 11.2856 112.562 9.78418Z" fill="white"/>
<path d="M73.6611 10.1812C75.5218 12.507 75.6957 12.907 75.6909 15.7464C75.691 16.033 75.6911 16.3196 75.6911 16.6149C75.6908 17.5643 75.6877 18.5136 75.6846 19.4629C75.6839 20.1203 75.6833 20.7778 75.6829 21.4352C75.6814 23.1672 75.6775 24.8991 75.6731 26.631C75.6691 28.3977 75.6673 30.1644 75.6653 31.9311C75.661 35.3987 75.6542 38.8663 75.6459 42.3339C74.9909 42.3339 74.3359 42.3339 73.6611 42.3339C73.6611 31.7235 73.6611 21.1131 73.6611 10.1812Z" fill="white"/>
<path d="M111.396 0.232666C111.973 0.244947 111.973 0.244947 112.562 0.257475C112.271 0.765968 112.271 0.765968 111.975 1.28473C110.604 3.68258 109.234 6.08108 107.868 8.48174C104.589 14.2401 101.269 19.9707 97.875 25.6621C96.6841 25.2652 96.6841 25.2652 96.312 24.6232C96.2727 23.1245 97.1004 22.0758 97.875 20.8491C98.2432 20.2459 98.6106 19.6422 98.9774 19.0381C99.181 18.705 99.3846 18.3718 99.5944 18.0286C100.849 15.9452 102.049 13.8295 103.259 11.7193C104.935 8.80559 106.616 5.89488 108.344 3.0113C108.489 2.77049 108.633 2.52967 108.781 2.28156C110 0.261154 110 0.261153 111.396 0.232666Z" fill="white"/>
<path d="M106.698 0.130127C107.243 0.193161 107.243 0.193161 107.799 0.257468C105.631 4.94884 102.912 9.32813 100.257 13.7537C99.7919 14.53 99.3273 15.3063 98.8627 16.0827C97.7417 17.954 96.6185 19.8239 95.4932 21.6926C95.1003 21.5617 94.7073 21.4307 94.3024 21.2957C93.9753 20.5825 93.9753 20.5825 93.9055 19.7079C94.2333 18.8961 94.2333 18.8961 94.7722 18.0193C94.9738 17.685 95.1754 17.3507 95.3831 17.0062C95.6077 16.6452 95.8324 16.2841 96.0639 15.9121C96.5399 15.1335 97.0154 14.3546 97.4904 13.5754C97.7452 13.1592 98 12.743 98.2626 12.3142C99.1141 10.8945 99.9298 9.45823 100.74 8.01501C101.161 7.27569 101.582 6.53692 102.003 5.79837C102.277 5.31396 102.548 4.82786 102.817 4.34013C103.195 3.65379 103.586 2.97417 103.976 2.29493C104.197 1.9015 104.418 1.50807 104.645 1.10273C105.417 0.257468 105.417 0.257468 106.698 0.130127Z" fill="white"/>
<path d="M108.593 16.5325C108.724 16.5325 108.855 16.5325 108.99 16.5325C108.99 25.047 108.99 33.5615 108.99 42.3341C108.335 42.3341 107.68 42.3341 107.005 42.3341C106.968 39.3803 106.94 36.4265 106.923 33.4726C106.914 32.1007 106.903 30.729 106.885 29.3572C106.864 27.7777 106.857 26.1983 106.85 24.6187C106.842 24.1295 106.833 23.6402 106.825 23.1361C106.824 20.446 106.972 18.718 108.593 16.5325Z" fill="white"/>
<path d="M77.6306 16.9294C79.6657 19.4733 79.6657 19.4733 79.6604 21.8752C79.6604 22.3281 79.6604 22.7811 79.6603 23.2477C79.6583 23.7385 79.6562 24.2294 79.6541 24.735C79.6536 25.2361 79.653 25.7372 79.6524 26.2535C79.6506 27.5861 79.647 28.9186 79.6426 30.2512C79.6386 31.6108 79.6367 32.9704 79.6347 34.33C79.6304 36.9981 79.6237 39.6661 79.6154 42.3341C78.9604 42.3341 78.3054 42.3341 77.6306 42.3341C77.6306 33.9506 77.6306 25.567 77.6306 16.9294Z" fill="white"/>
<path d="M116.928 5.8147C123.609 5.8147 130.29 5.8147 137.173 5.8147C137.173 6.46966 137.173 7.12462 137.173 7.79944C130.492 7.79944 123.811 7.79944 116.928 7.79944C116.928 7.14447 116.928 6.48951 116.928 5.8147Z" fill="#EAEBEC"/>
<path d="M116.928 2.24219C123.609 2.24219 130.29 2.24219 137.173 2.24219C137.173 2.76616 137.173 3.29013 137.173 3.82998C130.492 3.82998 123.811 3.82998 116.928 3.82998C116.928 3.30601 116.928 2.78204 116.928 2.24219Z" fill="#FEFEFE"/>
<path d="M70.0696 49.7695C70.0696 49.075 70.2296 48.452 70.5496 47.9005C70.8764 47.349 71.3156 46.92 71.8671 46.6136C72.4255 46.3004 73.0349 46.1438 73.6953 46.1438C74.4511 46.1438 75.1218 46.331 75.7073 46.7055C76.2997 47.0732 76.7287 47.5975 76.9942 48.2784H75.595C75.4112 47.9039 75.1558 47.6247 74.829 47.4409C74.5022 47.257 74.1243 47.1651 73.6953 47.1651C73.2255 47.1651 72.8068 47.2707 72.4391 47.4817C72.0714 47.6928 71.782 47.9958 71.5709 48.3907C71.3667 48.7856 71.2645 49.2452 71.2645 49.7695C71.2645 50.2938 71.3667 50.7534 71.5709 51.1483C71.782 51.5432 72.0714 51.8496 72.4391 52.0675C72.8068 52.2786 73.2255 52.3841 73.6953 52.3841C74.1243 52.3841 74.5022 52.2922 74.829 52.1084C75.1558 51.9245 75.4112 51.6454 75.595 51.2709H76.9942C76.7287 51.9518 76.2997 52.4761 75.7073 52.8437C75.1218 53.2114 74.4511 53.3953 73.6953 53.3953C73.028 53.3953 72.4186 53.2421 71.8671 52.9357C71.3156 52.6225 70.8764 52.1901 70.5496 51.6386C70.2296 51.087 70.0696 50.464 70.0696 49.7695ZM81.5947 53.4055C80.9342 53.4055 80.3249 53.2523 79.7665 52.9459C79.215 52.6327 78.7758 52.2003 78.449 51.6488C78.129 51.0905 77.969 50.464 77.969 49.7695C77.969 49.075 78.129 48.452 78.449 47.9005C78.7758 47.349 79.215 46.92 79.7665 46.6136C80.3249 46.3004 80.9342 46.1438 81.5947 46.1438C82.262 46.1438 82.8714 46.3004 83.4229 46.6136C83.9812 46.92 84.4204 47.349 84.7404 47.9005C85.0604 48.452 85.2205 49.075 85.2205 49.7695C85.2205 50.464 85.0604 51.0905 84.7404 51.6488C84.4204 52.2003 83.9812 52.6327 83.4229 52.9459C82.8714 53.2523 82.262 53.4055 81.5947 53.4055ZM81.5947 52.3944C82.0645 52.3944 82.4833 52.2888 82.851 52.0777C83.2186 51.8599 83.5046 51.5535 83.7089 51.1585C83.92 50.7568 84.0255 50.2938 84.0255 49.7695C84.0255 49.2452 83.92 48.7856 83.7089 48.3907C83.5046 47.9958 83.2186 47.6928 82.851 47.4817C82.4833 47.2707 82.0645 47.1651 81.5947 47.1651C81.1249 47.1651 80.7061 47.2707 80.3385 47.4817C79.9708 47.6928 79.6814 47.9958 79.4703 48.3907C79.2661 48.7856 79.1639 49.2452 79.1639 49.7695C79.1639 50.2938 79.2661 50.7568 79.4703 51.1585C79.6814 51.5535 79.9708 51.8599 80.3385 52.0777C80.7061 52.2888 81.1249 52.3944 81.5947 52.3944ZM92.198 53.334H91.0337L87.5305 48.0333V53.334H86.3662V46.2255H87.5305L91.0337 51.516V46.2255H92.198V53.334ZM96.0658 53.4055C95.5892 53.4055 95.1603 53.3238 94.779 53.1604C94.3977 52.9901 94.0981 52.7518 93.8802 52.4454C93.6623 52.139 93.5534 51.7816 93.5534 51.373H94.7994C94.8266 51.6794 94.9458 51.9313 95.1569 52.1288C95.3747 52.3263 95.6777 52.425 96.0658 52.425C96.4676 52.425 96.7808 52.3297 97.0055 52.139C97.2302 51.9416 97.3425 51.6896 97.3425 51.3832C97.3425 51.1449 97.271 50.9509 97.128 50.8011C96.9919 50.6513 96.8182 50.5355 96.6072 50.4538C96.4029 50.3721 96.1169 50.2836 95.7492 50.1883C95.2862 50.0657 94.9083 49.9431 94.6155 49.8206C94.3296 49.6912 94.0845 49.4938 93.8802 49.2282C93.6759 48.9627 93.5738 48.6086 93.5738 48.166C93.5738 47.7575 93.6759 47.4 93.8802 47.0936C94.0845 46.7872 94.3704 46.5523 94.7381 46.3889C95.1058 46.2255 95.5313 46.1438 96.0148 46.1438C96.7025 46.1438 97.2642 46.3174 97.7 46.6647C98.1426 47.0051 98.3877 47.4749 98.4353 48.0741H97.1485C97.128 47.8154 97.0055 47.5941 96.7808 47.4102C96.5561 47.2264 96.2599 47.1345 95.8922 47.1345C95.5586 47.1345 95.2862 47.2196 95.0751 47.3898C94.8641 47.56 94.7585 47.8052 94.7585 48.1252C94.7585 48.3431 94.8232 48.5235 94.9526 48.6665C95.0888 48.8027 95.259 48.9116 95.4633 48.9933C95.6675 49.075 95.9467 49.1635 96.3007 49.2589C96.7706 49.3882 97.1519 49.5176 97.4446 49.647C97.7442 49.7763 97.9962 49.9772 98.2004 50.2496C98.4115 50.5151 98.517 50.8726 98.517 51.322C98.517 51.6828 98.4183 52.0233 98.2209 52.3433C98.0302 52.6633 97.7476 52.922 97.3732 53.1195C97.0055 53.3102 96.5697 53.4055 96.0658 53.4055ZM101.045 46.2357V50.7602C101.045 51.2981 101.185 51.7033 101.464 51.9756C101.75 52.248 102.145 52.3841 102.649 52.3841C103.159 52.3841 103.554 52.248 103.833 51.9756C104.119 51.7033 104.262 51.2981 104.262 50.7602V46.2357H105.427V50.7398C105.427 51.3185 105.301 51.8088 105.049 52.2105C104.797 52.6122 104.46 52.9118 104.038 53.1093C103.615 53.3067 103.149 53.4055 102.638 53.4055C102.128 53.4055 101.661 53.3067 101.239 53.1093C100.824 52.9118 100.493 52.6122 100.248 52.2105C100.003 51.8088 99.8807 51.3185 99.8807 50.7398V46.2357H101.045ZM108.107 52.3944H110.507V53.334H106.943V46.2357H108.107V52.3944ZM116.066 46.2357V47.1855H114.177V53.334H113.013V47.1855H111.113V46.2357H116.066ZM118.41 46.2357V53.334H117.246V46.2357H118.41ZM125.77 53.334H124.606L121.103 48.0333V53.334H119.939V46.2255H121.103L124.606 51.516V46.2255H125.77V53.334ZM132.437 48.2784C132.253 47.9243 131.998 47.6588 131.671 47.4817C131.344 47.2979 130.966 47.206 130.537 47.206C130.067 47.206 129.648 47.3115 129.281 47.5226C128.913 47.7337 128.624 48.0333 128.413 48.4214C128.208 48.8095 128.106 49.2589 128.106 49.7695C128.106 50.2802 128.208 50.733 128.413 51.1279C128.624 51.516 128.913 51.8156 129.281 52.0267C129.648 52.2378 130.067 52.3433 130.537 52.3433C131.17 52.3433 131.684 52.1663 132.079 51.8122C132.474 51.4581 132.716 50.9781 132.804 50.3721H130.139V49.4427H134.05V50.3517C133.976 50.9032 133.778 51.4105 133.458 51.8735C133.145 52.3365 132.733 52.7076 132.222 52.9867C131.718 53.2591 131.157 53.3953 130.537 53.3953C129.87 53.3953 129.26 53.2421 128.709 52.9357C128.157 52.6225 127.718 52.1901 127.391 51.6386C127.071 51.087 126.911 50.464 126.911 49.7695C126.911 49.075 127.071 48.452 127.391 47.9005C127.718 47.349 128.157 46.92 128.709 46.6136C129.267 46.3004 129.877 46.1438 130.537 46.1438C131.293 46.1438 131.964 46.331 132.549 46.7055C133.141 47.0732 133.57 47.5975 133.836 48.2784H132.437Z" fill="white"/>
<path d="M71.4152 61.8352V63.6955H73.6038V64.5435H71.4152V66.4859H73.8773V67.334H70.3756V60.9871H73.8773V61.8352H71.4152ZM82.7336 67.334H81.694L78.5662 62.6012V67.334H77.5266V60.9871H78.5662L81.694 65.7108V60.9871H82.7336V67.334ZM91.0545 62.82C90.8903 62.5039 90.6623 62.2668 90.3705 62.1088C90.0787 61.9446 89.7413 61.8625 89.3583 61.8625C88.9388 61.8625 88.5649 61.9568 88.2367 62.1452C87.9084 62.3337 87.65 62.6012 87.4615 62.9477C87.2792 63.2942 87.188 63.6955 87.188 64.1514C87.188 64.6074 87.2792 65.0117 87.4615 65.3643C87.65 65.7108 87.9084 65.9783 88.2367 66.1667C88.5649 66.3552 88.9388 66.4494 89.3583 66.4494C89.9237 66.4494 90.3827 66.2914 90.7353 65.9752C91.0879 65.6591 91.3037 65.2305 91.3827 64.6895H89.0027V63.8596H92.4953V64.6712C92.4284 65.1636 92.2521 65.6166 91.9664 66.03C91.6867 66.4434 91.3189 66.7747 90.863 67.0239C90.4131 67.2671 89.9115 67.3887 89.3583 67.3887C88.7625 67.3887 88.2184 67.2519 87.726 66.9783C87.2336 66.6987 86.8414 66.3126 86.5496 65.8202C86.2639 65.3278 86.121 64.7715 86.121 64.1514C86.121 63.5313 86.2639 62.9751 86.5496 62.4826C86.8414 61.9902 87.2336 61.6072 87.726 61.3336C88.2245 61.054 88.7686 60.9142 89.3583 60.9142C90.0331 60.9142 90.6319 61.0813 91.1548 61.4157C91.6837 61.744 92.0667 62.2121 92.3038 62.82H91.0545ZM96.929 60.9962V67.334H95.8894V60.9962H96.929ZM105.87 67.334H104.83L101.702 62.6012V67.334H100.663V60.9871H101.702L104.83 65.7108V60.9871H105.87V67.334ZM110.643 61.8352V63.6955H112.832V64.5435H110.643V66.4859H113.105V67.334H109.604V60.9871H113.105V61.8352H110.643ZM117.794 61.8352V63.6955H119.983V64.5435H117.794V66.4859H120.256V67.334H116.755V60.9871H120.256V61.8352H117.794ZM127.198 67.334L125.739 64.7989H124.945V67.334H123.906V60.9962H126.094C126.581 60.9962 126.991 61.0813 127.325 61.2516C127.666 61.4218 127.918 61.6498 128.082 61.9355C128.252 62.2212 128.337 62.5404 128.337 62.893C128.337 63.3064 128.216 63.6833 127.973 64.0238C127.736 64.3581 127.368 64.5861 126.869 64.7077L128.438 67.334H127.198ZM124.945 63.969H126.094C126.483 63.969 126.775 63.8718 126.97 63.6772C127.17 63.4827 127.271 63.2213 127.271 62.893C127.271 62.5647 127.173 62.3094 126.979 62.127C126.784 61.9385 126.489 61.8443 126.094 61.8443H124.945V63.969ZM134.124 67.3978C133.699 67.3978 133.316 67.3249 132.975 67.179C132.635 67.027 132.368 66.8142 132.173 66.5406C131.978 66.2671 131.881 65.9479 131.881 65.5831H132.994C133.018 65.8567 133.124 66.0816 133.313 66.2579C133.507 66.4342 133.778 66.5224 134.124 66.5224C134.483 66.5224 134.763 66.4373 134.963 66.2671C135.164 66.0908 135.264 65.8658 135.264 65.5922C135.264 65.3795 135.2 65.2062 135.073 65.0725C134.951 64.9387 134.796 64.8354 134.608 64.7624C134.425 64.6895 134.17 64.6104 133.842 64.5253C133.428 64.4159 133.091 64.3065 132.83 64.197C132.574 64.0815 132.355 63.9052 132.173 63.6681C131.991 63.431 131.899 63.1149 131.899 62.7197C131.899 62.355 131.991 62.0358 132.173 61.7622C132.355 61.4887 132.611 61.2789 132.939 61.133C133.267 60.9871 133.647 60.9142 134.079 60.9142C134.693 60.9142 135.194 61.0692 135.584 61.3792C135.979 61.6832 136.198 62.1027 136.24 62.6377H135.091C135.073 62.4066 134.963 62.2091 134.763 62.0449C134.562 61.8808 134.298 61.7987 133.969 61.7987C133.672 61.7987 133.428 61.8747 133.24 62.0267C133.051 62.1787 132.957 62.3975 132.957 62.6833C132.957 62.8778 133.015 63.0389 133.13 63.1666C133.252 63.2882 133.404 63.3854 133.586 63.4584C133.769 63.5313 134.018 63.6104 134.334 63.6955C134.754 63.811 135.094 63.9265 135.356 64.042C135.623 64.1575 135.848 64.3369 136.03 64.58C136.219 64.8171 136.313 65.1363 136.313 65.5375C136.313 65.8597 136.225 66.1637 136.049 66.4494C135.878 66.7352 135.626 66.9662 135.292 67.1425C134.963 67.3127 134.574 67.3978 134.124 67.3978Z" fill="white"/>
</svg>
