<svg width="60" height="60" viewBox="0 0 60 60" fill="none" xmlns="http://www.w3.org/2000/svg">
<rect width="60" height="60" rx="30" fill="white"/>
<g clip-path="url(#clip0_535_6087)">
<path fill-rule="evenodd" clip-rule="evenodd" d="M20.8404 48.9787H39.1589V43.6608C39.1589 40.7289 36.7738 38.3429 33.8409 38.3429L32.9272 38.3429C32.057 38.9169 31.0474 39.2189 30.0001 39.2189C28.9518 39.2189 27.9422 38.9169 27.072 38.3429L26.1583 38.3429C23.2264 38.3429 20.8403 40.7289 20.8403 43.6608L20.8404 48.9787ZM39.5305 49.7221H20.4687C20.2635 49.7221 20.0969 49.5557 20.0969 49.3504L20.097 43.6608C20.097 40.3185 22.8159 37.5995 26.1583 37.5995H27.1862C27.2608 37.5995 27.3353 37.6227 27.3973 37.6653C28.1639 38.1957 29.0641 38.4755 30.0001 38.4755C30.9351 38.4755 31.8353 38.1957 32.6029 37.6653C32.6649 37.6227 32.7384 37.5995 32.8139 37.5995H33.841C37.1833 37.5995 39.9023 40.3185 39.9023 43.6608L39.9023 49.3504C39.9023 49.5557 39.7357 49.7221 39.5305 49.7221Z" fill="black"/>
<path fill-rule="evenodd" clip-rule="evenodd" d="M29.9875 26.9607C27.4572 26.9607 25.3994 29.0195 25.3994 31.5488C25.3995 34.079 27.4572 36.1368 29.9875 36.1368C32.5178 36.1368 34.5756 34.079 34.5756 31.5488C34.5756 29.0195 32.5177 26.9607 29.9875 26.9607ZM29.9875 36.8802C27.0478 36.8802 24.656 34.4884 24.656 31.5488C24.6561 28.6091 27.0478 26.2173 29.9875 26.2173C32.9272 26.2173 35.319 28.6091 35.319 31.5488C35.319 34.4884 32.9272 36.8802 29.9875 36.8802Z" fill="black"/>
<path fill-rule="evenodd" clip-rule="evenodd" d="M35.8349 49.722C35.6297 49.722 35.4631 49.5555 35.4631 49.3503L35.4632 45.3633C35.4632 45.1581 35.6296 44.9916 35.8349 44.9916C36.0401 44.9916 36.2065 45.1581 36.2065 45.3633L36.2066 49.3503C36.2066 49.5555 36.0401 49.722 35.8349 49.722Z" fill="black"/>
<path fill-rule="evenodd" clip-rule="evenodd" d="M24.1643 49.722C23.9592 49.722 23.7926 49.5555 23.7926 49.3503L23.7927 45.3633C23.7927 45.1581 23.9591 44.9916 24.1643 44.9916C24.3696 44.9916 24.536 45.1581 24.536 45.3633L24.5361 49.3503C24.5361 49.5555 24.3695 49.722 24.1643 49.722Z" fill="black"/>
<path fill-rule="evenodd" clip-rule="evenodd" d="M17.0237 30.9737C14.9765 30.9737 13.3106 32.6396 13.3106 34.6878C13.3107 36.735 14.9765 38.4009 17.0237 38.4009C19.072 38.4008 20.7378 36.735 20.7378 34.6878C20.7378 32.6396 19.0719 30.9737 17.0237 30.9737ZM17.0237 39.1442C14.5661 39.1442 12.5673 37.1454 12.5673 34.6878C12.5673 32.2301 14.566 30.2303 17.0237 30.2303C19.4814 30.2303 21.4811 32.2302 21.4811 34.6878C21.4811 37.1454 19.4813 39.1442 17.0237 39.1442Z" fill="black"/>
<path fill-rule="evenodd" clip-rule="evenodd" d="M12.2275 49.722C12.0223 49.722 11.8557 49.5555 11.8557 49.3503L11.8557 46.0661C11.8557 45.8608 12.0222 45.6943 12.2275 45.6943C12.4327 45.6943 12.5991 45.8608 12.5991 46.0661L12.5992 49.3503C12.5992 49.5555 12.4326 49.722 12.2275 49.722Z" fill="black"/>
<path fill-rule="evenodd" clip-rule="evenodd" d="M20.4687 49.7219H9.18427C8.97901 49.7219 8.8125 49.5554 8.8125 49.3502L8.81261 44.6634C8.81261 41.8747 11.0814 39.6058 13.8701 39.6058H14.7161C14.7916 39.6058 14.8651 39.6291 14.928 39.6717C15.5485 40.1005 16.2774 40.327 17.0343 40.327C17.7913 40.327 18.5201 40.1005 19.1406 39.6717C19.2036 39.6291 19.2771 39.6058 19.3526 39.6058H20.1986C20.73 39.6058 21.2555 39.6891 21.7608 39.8546C21.9554 39.9185 22.0619 40.1285 21.998 40.3231C21.9341 40.5186 21.725 40.6251 21.5295 40.5612C21.0997 40.4209 20.6515 40.3492 20.1986 40.3492H19.4649C18.7418 40.8216 17.9035 41.0703 17.0343 41.0703C16.1652 41.0703 15.3269 40.8216 14.6038 40.3492H13.8701C11.4909 40.3492 9.55588 42.2842 9.55588 44.6634L9.5559 48.9785H20.4687C20.6739 48.9785 20.8403 49.1441 20.8403 49.3502C20.8404 49.5554 20.6738 49.7219 20.4687 49.7219Z" fill="black"/>
<path fill-rule="evenodd" clip-rule="evenodd" d="M17.0237 30.9737C14.9765 30.9737 13.3106 32.6396 13.3106 34.6878C13.3107 36.735 14.9765 38.4009 17.0237 38.4009C19.072 38.4008 20.7378 36.735 20.7378 34.6878C20.7378 32.6396 19.0719 30.9737 17.0237 30.9737ZM17.0237 39.1442C14.5661 39.1442 12.5673 37.1454 12.5673 34.6878C12.5673 32.2301 14.566 30.2303 17.0237 30.2303C19.4814 30.2303 21.4811 32.2302 21.4811 34.6878C21.4811 37.1454 19.4813 39.1442 17.0237 39.1442Z" fill="black"/>
<path fill-rule="evenodd" clip-rule="evenodd" d="M12.2275 49.722C12.0223 49.722 11.8557 49.5555 11.8557 49.3503L11.8557 46.0661C11.8557 45.8608 12.0222 45.6943 12.2275 45.6943C12.4327 45.6943 12.5991 45.8608 12.5991 46.0661L12.5992 49.3503C12.5992 49.5555 12.4326 49.722 12.2275 49.722Z" fill="black"/>
<path fill-rule="evenodd" clip-rule="evenodd" d="M50.816 49.7219H39.5306C39.3254 49.7219 39.1589 49.5554 39.1589 49.3502C39.1589 49.1441 39.3254 48.9785 39.5306 48.9785H50.4444V44.6634C50.4444 42.2842 48.5083 40.3492 46.1291 40.3492H45.3964C44.6724 40.8216 43.8341 41.0703 42.9649 41.0703C42.0957 41.0703 41.2584 40.8216 40.5344 40.3492H39.8007C39.3477 40.3492 38.8995 40.4209 38.4697 40.5612C38.2753 40.6251 38.0651 40.5186 38.0012 40.3231C37.9373 40.1285 38.0438 39.9185 38.2393 39.8546C38.7437 39.689 39.2692 39.6058 39.8006 39.6058H40.6476C40.7232 39.6058 40.7967 39.6291 40.8586 39.6717C41.4791 40.1005 42.2079 40.327 42.9649 40.327C43.7228 40.327 44.4507 40.1005 45.0721 39.6717C45.1341 39.6291 45.2076 39.6058 45.2831 39.6058H46.1292C48.9188 39.6058 51.1876 41.8747 51.1876 44.6634V49.3502C51.1876 49.5554 51.0212 49.7219 50.816 49.7219Z" fill="black"/>
<path fill-rule="evenodd" clip-rule="evenodd" d="M42.9755 30.9737C40.9273 30.9737 39.2614 32.6396 39.2614 34.6878C39.2615 36.735 40.9273 38.4009 42.9755 38.4009C45.0227 38.4008 46.6895 36.735 46.6895 34.6878C46.6896 32.6396 45.0227 30.9737 42.9755 30.9737ZM42.9755 39.1442C40.5179 39.1442 38.5181 37.1454 38.5181 34.6878C38.5181 32.2301 40.5178 30.2303 42.9755 30.2303C45.4332 30.2303 47.4319 32.2302 47.4319 34.6878C47.432 37.1454 45.4331 39.1442 42.9755 39.1442Z" fill="black"/>
<path fill-rule="evenodd" clip-rule="evenodd" d="M47.7717 49.722C47.5666 49.722 47.4 49.5555 47.4 49.3503L47.4 46.0661C47.4 45.8608 47.5665 45.6943 47.7717 45.6943C47.977 45.6943 48.1434 45.8608 48.1434 46.0661L48.1435 49.3503C48.1435 49.5555 47.9769 49.722 47.7717 49.722Z" fill="black"/>
<path fill-rule="evenodd" clip-rule="evenodd" d="M30.0001 11.0213C26.6945 11.0213 24.0055 13.7103 24.0055 17.0149C24.0056 20.3195 26.6944 23.0085 30 23.0085C33.3046 23.0085 35.9936 20.3195 35.9936 17.0149C35.9936 13.7103 33.3046 11.0213 30.0001 11.0213ZM30.0001 23.7518C26.2851 23.7518 23.2621 20.7299 23.2621 17.0149C23.2621 13.2999 26.285 10.278 30 10.278C33.715 10.2779 36.7369 13.2999 36.7369 17.0149C36.737 20.7299 33.715 23.7518 30.0001 23.7518Z" fill="black"/>
<path fill-rule="evenodd" clip-rule="evenodd" d="M26.0867 16.618L27.8599 19.4231L33.9087 15.2377L33.4664 14.5979L28.403 18.1019C28.3197 18.159 28.2161 18.1803 28.1174 18.16C28.0177 18.1396 27.9315 18.0796 27.8773 17.9944L26.7439 16.2028L26.0867 16.618ZM27.7525 20.3204C27.7283 20.3204 27.7031 20.3185 27.6789 20.3127C27.5792 20.2933 27.4931 20.2333 27.4389 20.1472L25.2601 16.7013C25.2068 16.618 25.1893 16.5173 25.2106 16.4215C25.233 16.3247 25.2919 16.2415 25.3752 16.1882L26.6607 15.3752C26.8339 15.2658 27.0643 15.318 27.1736 15.4913L28.2985 17.2694L33.3482 13.7751C33.5177 13.658 33.7489 13.7006 33.8661 13.87L34.7314 15.1206C34.7876 15.2019 34.8089 15.3016 34.7914 15.3984C34.7741 15.4962 34.7188 15.5814 34.6375 15.6375L27.9645 20.2546C27.9016 20.2982 27.8279 20.3205 27.7525 20.3204Z" fill="black"/>
</g>
<defs>
<clipPath id="clip0_535_6087">
<rect width="48" height="48" fill="white" transform="translate(6 6)"/>
</clipPath>
</defs>
</svg>
