<svg width="60" height="60" viewBox="0 0 60 60" fill="none" xmlns="http://www.w3.org/2000/svg">
<rect width="60" height="60" rx="30" fill="white"/>
<path d="M34.4426 40.0207L33.5974 39.8982C33.5369 39.7041 33.4585 39.5156 33.3635 39.3359L33.8739 38.6545C33.919 38.5942 33.9129 38.51 33.8596 38.457L32.8426 37.4439C32.7897 37.3912 32.7061 37.385 32.646 37.4297L31.9612 37.9387C31.7806 37.8438 31.5912 37.7656 31.3959 37.7052L31.2729 36.8638C31.2621 36.7897 31.1986 36.7346 31.1235 36.7346H29.6852C29.6103 36.7346 29.5466 36.7897 29.5358 36.8638L29.4129 37.7052C29.2176 37.7656 29.0281 37.8438 28.8475 37.9387L28.1628 37.4297C28.1028 37.3851 28.0191 37.3912 27.9662 37.4439L26.9491 38.457C26.8958 38.51 26.8897 38.5942 26.9349 38.6545L27.4452 39.3359C27.3502 39.5156 27.2718 39.7041 27.2113 39.8982L26.3661 40.0207C26.2919 40.0315 26.2368 40.095 26.2368 40.1701V41.6028C26.2368 41.6778 26.2918 41.7414 26.3661 41.7521L27.2113 41.8746C27.2718 42.0687 27.3502 42.2572 27.4452 42.4369L26.9349 43.1184C26.8897 43.1786 26.8958 43.2628 26.9491 43.3158L27.9662 44.3289C28.019 44.3816 28.1028 44.3878 28.1628 44.3431L28.8475 43.8342C29.0283 43.9291 29.2177 44.0073 29.4129 44.0676L29.5358 44.909C29.5466 44.9832 29.6102 45.0382 29.6852 45.0382H31.1235C31.1985 45.0382 31.2621 44.9832 31.2729 44.909L31.3959 44.0676C31.591 44.0073 31.7805 43.9291 31.9612 43.8342L32.646 44.3431C32.7061 44.3877 32.7897 44.3817 32.8426 44.3289L33.8596 43.3158C33.9129 43.2628 33.919 43.1786 33.8739 43.1184L33.3635 42.4369C33.4585 42.2572 33.5369 42.0687 33.5974 41.8746L34.4426 41.7521C34.5168 41.7414 34.5719 41.6778 34.5719 41.6028V40.1701C34.5719 40.095 34.5168 40.0315 34.4426 40.0207ZM32.518 40.8864C32.518 42.0519 31.5697 43.0001 30.4043 43.0001C29.2388 43.0001 28.2906 42.0519 28.2906 40.8864C28.2906 39.721 29.2388 38.7727 30.4043 38.7727C31.5697 38.7727 32.518 39.7209 32.518 40.8864Z" fill="black"/>
<path d="M37.4736 42.9614H35.9669C35.8295 42.9321 35.7883 42.8529 35.8433 42.7236L36.9124 41.2022L35.8433 39.6808C35.7883 39.5516 35.8295 39.4723 35.9669 39.4431H37.4736C37.5228 39.4431 37.5689 39.467 37.5972 39.5074L38.7273 41.1156C38.7638 41.1676 38.7638 41.237 38.7273 41.2891L37.5972 42.8973C37.5689 42.9374 37.5228 42.9614 37.4736 42.9614ZM36.2575 42.6594H37.3952L38.4191 41.2022L37.3952 39.7449H36.2575L37.2205 41.1153C37.2571 41.1674 37.2571 41.2368 37.2205 41.2889L36.2575 42.6594Z" fill="black"/>
<path d="M42.1182 41.1152L40.9882 39.507C40.9599 39.4668 40.9138 39.4427 40.8646 39.4427H39.3578C39.2204 39.472 39.1792 39.5513 39.2342 39.6805L40.3033 41.2019L39.2342 42.7232C39.1792 42.8525 39.2203 42.9318 39.3578 42.961H40.8646C40.9137 42.961 40.9599 42.9371 40.9882 42.8967L42.1182 41.2885C42.1549 41.2367 42.1549 41.1673 42.1182 41.1152Z" fill="black"/>
<path d="M44.2556 42.9611H42.7489C42.6115 42.9319 42.5703 42.8526 42.6253 42.7234L43.6944 41.202L42.6253 39.6806C42.5703 39.5513 42.6115 39.4721 42.7489 39.4429H44.2556C44.3048 39.4429 44.3509 39.4668 44.3792 39.507L45.5093 41.1153C45.5459 41.1673 45.5459 41.2368 45.5093 41.289L44.3792 42.8972C44.3508 42.9372 44.3048 42.9611 44.2556 42.9611ZM43.0394 42.6592H44.1771L45.2011 41.2019L44.1771 39.7447H43.0394L44.0024 41.1151C44.039 41.1671 44.039 41.2366 44.0024 41.2886L43.0394 42.6592Z" fill="black"/>
<path d="M44.3319 18.1834H43.9253L42.7662 15.9849C42.6714 15.8428 42.5254 15.9353 42.4992 15.9849L41.3403 18.1834H41.0133L39.8487 15.0883C39.7698 14.933 39.5882 15.0295 39.566 15.0883L38.4013 18.1834H38.0964L36.9267 14.1853C36.821 14.0106 36.6558 14.1209 36.637 14.1853L35.4672 18.1834H35.1785V13.6455C35.1785 13.5621 35.1109 13.4944 35.0276 13.4944C34.9442 13.4944 34.8766 13.562 34.8766 13.6455V18.3345C34.8766 18.4179 34.9442 18.4856 35.0276 18.4856H44.332C44.4153 18.4856 44.4829 18.418 44.4829 18.3345C44.4829 18.251 44.4152 18.1834 44.3319 18.1834ZM42.6327 16.3793L43.5839 18.1835H41.6816L42.6327 16.3793ZM39.7073 15.5703L40.6905 18.1834H38.7239L39.7073 15.5703Z" fill="black"/>
<path d="M46.557 47.3745C46.545 47.3002 46.4752 47.2488 46.3999 47.2488H23.3182L22.9128 39.9747L23.6907 31.4775C24.1665 31.7346 25.3683 32.2666 26.5851 31.8758C27.5513 31.5654 28.2976 30.7445 28.8016 29.4402L30.3704 25.7035C30.3977 25.6384 30.3757 25.5642 30.3197 25.5233L30.6782 25.2522C31.1915 24.8062 31.2584 24.2814 30.827 23.7666L30.4309 23.3523L31.378 22.7436L35.3899 26.6938C35.4483 26.7514 35.5423 26.7517 35.601 26.6944L39.1002 23.2867L45.0996 29.3879L43.5068 29.2193C43.4147 29.2099 43.3349 29.2836 43.3401 29.3795C43.3441 29.4543 43.4074 29.5128 43.4819 29.5206L45.4694 29.731C45.6303 29.7448 45.6873 29.6187 45.6721 29.5635L45.3865 27.5389C45.3728 27.4426 45.2702 27.3797 45.1755 27.4223C45.1123 27.4508 45.0791 27.5218 45.0889 27.5905L45.3121 29.1729L39.2102 22.9676C39.1519 22.9083 39.0568 22.9074 38.9973 22.9653L35.4964 26.3748L31.6333 22.571C31.8333 22.3946 31.899 22.0902 31.7553 21.8541C31.5887 21.5804 31.3024 21.4198 30.9154 21.6194C30.8656 21.645 30.8157 21.6804 30.7621 21.7132L29.3545 20.3273C29.2957 20.2694 29.2014 20.2695 29.1427 20.3274L26.3846 23.0496L20.2685 16.9459C20.2094 16.8869 20.1138 16.8871 20.055 16.9462C19.9961 17.0053 19.9963 17.101 20.0553 17.1599L26.2773 23.3692C26.3361 23.4279 26.4309 23.4281 26.4899 23.3698L29.2488 20.6469L30.4963 21.8753C30.0133 22.1701 29.4259 22.5279 29.0602 22.7503C28.8019 22.9076 28.6172 23.1555 28.541 23.4452L28.2808 24.3505C28.2116 24.3209 28.13 24.3458 28.0911 24.4123L25.7382 28.4402C25.2075 28.2788 22.9367 27.6222 20.4861 27.4129C20.4377 27.2588 20.3598 26.963 20.3374 26.6025C20.6895 26.6234 21.0245 26.5261 21.3422 26.3106C22.0109 25.7575 22.0839 24.4747 21.5602 22.498C22.4761 21.8822 22.0879 20.8999 22.0833 20.8895C21.7986 20.2523 21.0009 19.8722 20.5225 19.77C19.44 19.5387 18.5759 19.5742 17.9443 19.8732V13.2442H32.2538C32.3372 13.2442 32.4049 13.1765 32.4049 13.093C32.4049 13.0095 32.3372 12.9419 32.2538 12.9419H17.7932C17.7099 12.9419 17.6422 13.0095 17.6422 13.0929V20.049C17.3022 20.2886 16.992 20.7515 16.9114 21.1559C15.9493 21.2838 15.382 22.6899 15.5489 23.644C15.7567 24.8319 16.6554 25.7191 17.73 26.0999C17.7474 26.469 17.7237 27.1389 17.3735 27.4542C16.7094 27.5465 16.1122 27.6991 15.5984 27.9095C15.5384 27.9334 14.1222 28.5224 13.5241 30.9354C13.432 31.3071 13.3173 31.6842 13.2062 32.0488C12.8302 33.2844 12.475 34.4514 13.0181 35.2848C13.3673 35.8207 14.053 36.1536 15.1119 36.3005L14.9323 39.9539C14.936 40.0415 14.9795 40.0937 15.0626 40.1104C14.6719 41.5316 14.9475 42.8087 15.1068 43.3489C15.1541 43.5095 15.1682 43.6729 15.1489 43.8346L14.7389 47.2488H12.8991C12.8239 47.2488 12.7541 47.3002 12.742 47.3745C12.7266 47.4691 12.7992 47.551 12.891 47.551H46.4081C46.4998 47.551 46.5724 47.4691 46.557 47.3745ZM28.8321 23.5255C28.8892 23.3085 29.0259 23.125 29.2171 23.0086C29.6994 22.7152 30.5676 22.1865 31.073 21.877C31.23 21.7808 31.3928 21.8551 31.4913 22.0007C31.5625 22.1293 31.523 22.2912 31.4014 22.3693L30.1136 23.197C30.0317 23.2656 30.0225 23.3428 30.0862 23.4286L30.6098 23.9764C30.8976 24.3527 30.8636 24.6949 30.5078 25.0027C30.5051 25.0044 30.0367 25.3586 30.0367 25.3586L28.551 24.5039L28.8321 23.5255ZM21.1505 26.0771C20.5376 26.585 19.4612 26.0754 19.4466 26.0683C19.3718 26.032 19.2814 26.0632 19.245 26.1383C19.2086 26.2133 19.2398 26.3038 19.3149 26.3401C19.3398 26.3523 19.6417 26.4961 20.0328 26.5666C20.0497 26.9364 20.1221 27.2476 20.178 27.4387C19.3225 27.8726 18.5025 27.8892 17.7393 27.4883C18.0241 27.07 18.0482 26.4582 18.0325 26.0969C19.7707 25.3957 20.2177 23.3338 20.3127 22.7274C20.7018 22.7913 21.0275 22.7645 21.2878 22.6494C21.7509 24.434 21.7042 25.6182 21.1505 26.0771ZM15.1291 35.9974C14.1765 35.862 13.5674 35.5743 13.2711 35.1197C12.805 34.4044 13.1402 33.303 13.4952 32.137C13.6073 31.7686 13.7232 31.3876 13.8174 31.0082C14.3754 28.7568 15.6974 28.1956 15.7115 28.1899C16.2392 27.9738 16.8596 27.8206 17.556 27.7344C18.4266 28.2092 19.3585 28.1986 20.3272 27.7029C23.1302 27.9225 25.7357 28.7556 25.7618 28.7639C25.8294 28.7858 25.9027 28.7577 25.9385 28.6965L28.2763 24.6944L30.0405 25.7094L28.5217 29.327C28.051 30.5452 27.3689 31.3057 26.4948 31.5874C25.0998 32.0368 23.6592 31.1102 23.6448 31.1009C23.5247 31.0505 23.447 31.088 23.4117 31.2134L22.6247 39.8102H15.2418L15.5393 33.8293C15.5435 33.7459 15.4793 33.675 15.3961 33.6709C15.3148 33.6667 15.2419 33.7308 15.2378 33.8142L15.1291 35.9974ZM19.2656 47.2488L19.0879 44.3192C19.0743 44.0886 19.0057 43.8602 18.8895 43.6589C18.7512 43.4192 18.5395 43.0024 18.3735 42.4626C18.354 42.3989 18.2958 42.3548 18.2292 42.3548C18.1279 42.3548 18.055 42.4531 18.0848 42.55C18.2597 43.1189 18.4825 43.5578 18.6281 43.8101C18.7209 43.971 18.7757 44.1532 18.7867 44.3374L18.9632 47.2489H15.0431L15.4487 43.8707C15.473 43.668 15.4554 43.4637 15.3965 43.2635C15.2423 42.7407 14.9726 41.4905 15.3755 40.1126H22.6181L23.0159 47.2489L19.2656 47.2488Z" fill="black"/>
<path d="M47.8824 12.942H45.7466V12.3733C45.7466 12.2898 45.6789 12.2222 45.5954 12.2222H33.7637C33.6803 12.2222 33.6128 12.2897 33.6128 12.3731V21.1376C33.6128 21.2798 33.7798 21.3301 33.8673 21.2476L35.4576 19.7467H45.5956C45.679 19.7467 45.7466 19.6791 45.7466 19.5957V13.2442H47.7315V33.3934H26.2965C26.213 33.3934 26.1454 33.461 26.1454 33.5445C26.1454 33.6279 26.213 33.6956 26.2965 33.6956H47.8825C47.9659 33.6956 48.0335 33.6281 48.0335 33.5446V13.0931C48.0335 13.0097 47.9659 12.942 47.8824 12.942ZM45.4446 19.4445H35.3977C35.3592 19.4445 35.3221 19.4592 35.2941 19.4856L33.9147 20.7874V12.5244H45.4446L45.4446 19.4445Z" fill="black"/>
<path d="M24.8662 33.919C25.0748 33.919 25.244 33.7499 25.244 33.5412C25.244 33.3326 25.0748 33.1635 24.8662 33.1635C24.6575 33.1635 24.4884 33.3326 24.4884 33.5412C24.4884 33.7499 24.6575 33.919 24.8662 33.919Z" fill="black"/>
<path d="M47.8827 47.7778C48.0913 47.7778 48.2604 47.6086 48.2604 47.4C48.2604 47.1914 48.0913 47.0222 47.8827 47.0222C47.674 47.0222 47.5049 47.1914 47.5049 47.4C47.5049 47.6086 47.674 47.7778 47.8827 47.7778Z" fill="black"/>
</svg>
