<svg width="60" height="60" viewBox="0 0 60 60" fill="none" xmlns="http://www.w3.org/2000/svg">
<rect width="60" height="60" rx="30" fill="white"/>
<path fill-rule="evenodd" clip-rule="evenodd" d="M48.1249 43.7166C47.9178 43.7166 47.7499 43.5487 47.7499 43.3416V19.8342H45.2721C45.0649 19.8342 44.8971 19.6664 44.8971 19.4592C44.8971 19.2521 45.0649 19.0842 45.2721 19.0842H48.1249C48.332 19.0842 48.4999 19.2521 48.4999 19.4592V43.3416C48.4999 43.5487 48.3321 43.7166 48.1249 43.7166ZM36.2916 19.8342H28.7604C28.5532 19.8342 28.3854 19.6664 28.3854 19.4592C28.3854 19.2521 28.5532 19.0842 28.7604 19.0842H36.2916C36.4987 19.0842 36.6666 19.2521 36.6666 19.4592C36.6666 19.6664 36.4987 19.8342 36.2916 19.8342ZM21.7667 19.8342H17.4498C17.2427 19.8342 17.0748 19.6664 17.0748 19.4592C17.0748 19.2521 17.2427 19.0842 17.4498 19.0842H21.7667C21.9738 19.0842 22.1417 19.2521 22.1417 19.4592C22.1417 19.6664 21.9737 19.8342 21.7667 19.8342Z" fill="black"/>
<path fill-rule="evenodd" clip-rule="evenodd" d="M12.875 43.7166C12.6679 43.7166 12.5 43.5487 12.5 43.3416V16.145C12.5 14.6769 13.6943 13.4826 15.1624 13.4826L17.4498 13.4825C17.6569 13.4825 17.8248 13.6504 17.8248 13.8576V40.5408C17.8248 40.748 17.6569 40.9158 17.4498 40.9158C17.2427 40.9158 17.0748 40.748 17.0748 40.5408V14.2325H15.1624C14.1079 14.2325 13.25 15.0904 13.25 16.1449V43.3417C13.25 43.5487 13.0821 43.7166 12.875 43.7166Z" fill="black"/>
<path fill-rule="evenodd" clip-rule="evenodd" d="M45.3242 46.5175H15.676C13.9247 46.5175 12.5 45.0929 12.5 43.3417C12.5 41.5905 13.9247 40.1658 15.676 40.1658L17.4543 40.1658C17.6615 40.1658 17.8293 40.3336 17.8293 40.5408C17.8293 40.7479 17.6615 40.9158 17.4543 40.9158H15.676C14.3383 40.9158 13.2499 42.0041 13.2499 43.3417C13.2499 44.6793 14.3383 45.7675 15.676 45.7675L45.3242 45.7676C46.6617 45.7676 47.7499 44.6793 47.7499 43.3417C47.7499 43.1345 47.9178 42.9667 48.1249 42.9667C48.332 42.9667 48.4999 43.1345 48.4999 43.3417C48.4998 45.0929 47.0752 46.5175 45.3242 46.5175Z" fill="black"/>
<path fill-rule="evenodd" clip-rule="evenodd" d="M37.9385 38.7159C37.8426 38.7159 37.7465 38.6792 37.6734 38.606L28.4038 29.3365C28.3335 29.2662 28.2939 29.1708 28.2939 29.0714C28.2939 28.972 28.3334 28.8766 28.4038 28.8063L30.7865 26.4236C30.927 26.283 31.1762 26.283 31.3168 26.4236L40.5863 35.6932C40.7328 35.8396 40.7328 36.0771 40.5863 36.2234L38.2037 38.6061C38.1305 38.6792 38.0344 38.7159 37.9385 38.7159ZM29.1993 29.0714L37.9385 37.8105L39.7909 35.9582L31.0517 27.2189L29.1993 29.0714Z" fill="black"/>
<path fill-rule="evenodd" clip-rule="evenodd" d="M28.6689 29.4464C28.64 29.4464 28.6109 29.4431 28.5821 29.4362C28.4554 29.406 28.3535 29.3124 28.3128 29.1887L27.1326 25.6053C27.0882 25.4704 27.1238 25.322 27.2245 25.2219C27.3254 25.1218 27.4742 25.0871 27.6085 25.1326L31.1715 26.3334C31.2944 26.3748 31.3872 26.4768 31.4167 26.6031C31.4464 26.7294 31.4086 26.8621 31.3168 26.9538L28.9342 29.3366C28.8629 29.4077 28.7672 29.4464 28.6689 29.4464ZM28.0794 26.0828L28.8345 28.3755L30.359 26.8511L28.0794 26.0828Z" fill="black"/>
<path fill-rule="evenodd" clip-rule="evenodd" d="M39.5049 40.2823C39.4054 40.2823 39.3101 40.2428 39.2397 40.1724L37.6733 38.606C37.5269 38.4596 37.5269 38.2221 37.6733 38.0757L40.056 35.6931C40.2022 35.5466 40.4399 35.5467 40.5863 35.693L42.1526 37.2593C42.2231 37.3297 42.2625 37.425 42.2625 37.5245C42.2625 37.6241 42.2231 37.7193 42.1526 37.7897L39.77 40.1724C39.6997 40.2428 39.6043 40.2823 39.5049 40.2823ZM38.4688 38.3409L39.5049 39.3769L41.3572 37.5245L40.3212 36.4885L38.4688 38.3409Z" fill="black"/>
<path fill-rule="evenodd" clip-rule="evenodd" d="M36.3189 34.7138C36.223 34.7138 36.1269 34.6771 36.0538 34.6039L32.406 30.9561C32.2595 30.8097 32.2595 30.5722 32.406 30.4258C32.5523 30.2793 32.79 30.2793 32.9363 30.4258L36.584 34.0736C36.7305 34.22 36.7305 34.4575 36.584 34.6039C36.5109 34.6771 36.4148 34.7138 36.3189 34.7138Z" fill="black"/>
<path fill-rule="evenodd" clip-rule="evenodd" d="M37.4205 41.4602C37.4212 41.4602 37.4201 41.4602 37.4205 41.4602H20.8502C20.6431 41.4602 20.4752 41.2924 20.4752 41.0852V24.5168C20.4752 24.3651 20.5666 24.2284 20.7068 24.1703C20.8467 24.1122 21.0081 24.1443 21.1155 24.2517L37.662 40.7982C37.7436 40.867 37.7956 40.97 37.7956 41.0851C37.7956 41.2924 37.6277 41.4602 37.4205 41.4602ZM21.2252 40.7102H36.5133L21.2252 25.4221V40.7102Z" fill="black"/>
<path fill-rule="evenodd" clip-rule="evenodd" d="M31.0911 38.8384C31.0918 38.8385 31.0906 38.8385 31.0911 38.8384H23.4721C23.2649 38.8384 23.097 38.6705 23.097 38.4634V30.8464C23.097 30.6947 23.1885 30.558 23.3285 30.4999C23.4687 30.4419 23.63 30.4738 23.7372 30.5812L31.3324 38.1764C31.4142 38.2452 31.4661 38.3482 31.4661 38.4633C31.4661 38.6705 31.2982 38.8384 31.0911 38.8384ZM23.847 38.0884H30.1838L23.847 31.7516V38.0884Z" fill="black"/>
<path fill-rule="evenodd" clip-rule="evenodd" d="M33.1399 41.4602C32.9328 41.4602 32.7649 41.2923 32.7649 41.0852V40.2833C32.7649 40.0762 32.9328 39.9083 33.1399 39.9083C33.347 39.9083 33.5149 40.0762 33.5149 40.2833V41.0852C33.5149 41.2923 33.347 41.4602 33.1399 41.4602Z" fill="black"/>
<path fill-rule="evenodd" clip-rule="evenodd" d="M30.4696 41.4602C30.2625 41.4602 30.0946 41.2923 30.0946 41.0852V40.2833C30.0946 40.0762 30.2625 39.9083 30.4696 39.9083C30.6768 39.9083 30.8446 40.0762 30.8446 40.2833V41.0852C30.8446 41.2923 30.6768 41.4602 30.4696 41.4602Z" fill="black"/>
<path fill-rule="evenodd" clip-rule="evenodd" d="M27.7992 41.4602C27.5921 41.4602 27.4242 41.2923 27.4242 41.0852V40.2833C27.4242 40.0762 27.5921 39.9083 27.7992 39.9083C28.0063 39.9083 28.1742 40.0762 28.1742 40.2833V41.0852C28.1742 41.2923 28.0063 41.4602 27.7992 41.4602Z" fill="black"/>
<path fill-rule="evenodd" clip-rule="evenodd" d="M25.1288 41.4602C24.9216 41.4602 24.7538 41.2923 24.7538 41.0852V40.2833C24.7538 40.0762 24.9216 39.9083 25.1288 39.9083C25.3359 39.9083 25.5038 40.0762 25.5038 40.2833V41.0852C25.5038 41.2923 25.3359 41.4602 25.1288 41.4602Z" fill="black"/>
<path fill-rule="evenodd" clip-rule="evenodd" d="M45.2605 39.6617C45.0534 39.6617 44.8855 39.4939 44.8855 39.2867V32.801C44.8855 32.5939 45.0534 32.426 45.2605 32.426C45.4676 32.426 45.6355 32.5939 45.6355 32.801V39.2867C45.6355 39.4938 45.4677 39.6617 45.2605 39.6617Z" fill="black"/>
<path fill-rule="evenodd" clip-rule="evenodd" d="M40.1496 43.965H20.8502C20.6431 43.965 20.4752 43.7971 20.4752 43.59C20.4752 43.3828 20.6431 43.215 20.8502 43.215H40.1496C40.3567 43.215 40.5246 43.3828 40.5246 43.59C40.5246 43.7971 40.3568 43.965 40.1496 43.965Z" fill="black"/>
<path fill-rule="evenodd" clip-rule="evenodd" d="M42.5547 28.8396C42.3476 28.8396 42.1797 28.6718 42.1797 28.4647C42.1797 26.4177 43.0829 25.7725 43.8798 25.2032C44.7053 24.6136 45.485 24.0566 45.485 21.8322C45.485 19.2388 43.3752 17.1291 40.7819 17.1291C38.1885 17.1291 36.0787 19.2389 36.0787 21.8322C36.0787 24.0565 36.8584 24.6134 37.6839 25.2032C38.4808 25.7725 39.384 26.4178 39.384 28.4647C39.384 28.6718 39.2161 28.8396 39.009 28.8396C38.8019 28.8396 38.634 28.6718 38.634 28.4647C38.634 26.8036 38.0223 26.3667 37.2479 25.8135C36.3484 25.1709 35.3289 24.4426 35.3289 21.8322C35.3289 18.8254 37.7751 16.3792 40.782 16.3792C43.7888 16.3792 46.2351 18.8254 46.2351 21.8322C46.2351 24.4425 45.2155 25.1709 44.316 25.8135C43.5415 26.3667 42.9299 26.8037 42.9299 28.4647C42.9297 28.6717 42.7619 28.8396 42.5547 28.8396Z" fill="black"/>
<path fill-rule="evenodd" clip-rule="evenodd" d="M42.9482 30.1017H38.6154C38.4082 30.1017 38.2404 29.9337 38.2404 29.7267V28.4647C38.2404 28.2576 38.4082 28.0897 38.6154 28.0897H42.9482C43.1553 28.0897 43.3231 28.2576 43.3231 28.4647V29.7267C43.3231 29.9337 43.1553 30.1017 42.9482 30.1017ZM38.9903 29.3517H42.5731V28.8396L38.9903 28.8396V29.3517Z" fill="black"/>
<path fill-rule="evenodd" clip-rule="evenodd" d="M42.3173 31.3637H39.2466C39.0394 31.3637 38.8716 31.1959 38.8716 30.9887V29.7268C38.8716 29.5197 39.0394 29.3518 39.2466 29.3518C39.4537 29.3518 39.6216 29.5197 39.6216 29.7268V30.6139L41.9424 30.6138V29.7268C41.9424 29.5197 42.1103 29.3518 42.3174 29.3518C42.5245 29.3518 42.6924 29.5197 42.6924 29.7268V30.9887C42.6923 31.1959 42.5244 31.3637 42.3173 31.3637Z" fill="black"/>
<path fill-rule="evenodd" clip-rule="evenodd" d="M40.7817 28.8396C40.5746 28.8396 40.4067 28.6717 40.4067 28.4646V23.9431C40.4067 23.736 40.5746 23.5681 40.7817 23.5681C40.9889 23.5681 41.1568 23.736 41.1568 23.9431V28.4646C41.1568 28.6717 40.9889 28.8396 40.7817 28.8396Z" fill="black"/>
<path fill-rule="evenodd" clip-rule="evenodd" d="M40.7817 24.3181C39.788 24.3181 38.9795 23.5096 38.9795 22.5159C38.9795 22.3087 39.1474 22.1409 39.3545 22.1409C39.5616 22.1409 39.7295 22.3087 39.7295 22.5159C39.7295 23.096 40.2015 23.5681 40.7817 23.5681C41.3619 23.5681 41.834 23.096 41.834 22.5159C41.834 22.3087 42.0019 22.1409 42.209 22.1409C42.4161 22.1409 42.584 22.3087 42.584 22.5159C42.584 23.5097 41.7755 24.3181 40.7817 24.3181Z" fill="black"/>
<path fill-rule="evenodd" clip-rule="evenodd" d="M40.7817 15.5364C40.5746 15.5364 40.4067 15.3685 40.4067 15.1614V13.8576C40.4067 13.6504 40.5746 13.4825 40.7817 13.4825C40.9889 13.4825 41.1568 13.6504 41.1568 13.8576V15.1614C41.1568 15.3685 40.9889 15.5364 40.7817 15.5364Z" fill="black"/>
<path fill-rule="evenodd" clip-rule="evenodd" d="M37.0582 16.5343C36.9286 16.5343 36.8025 16.467 36.7331 16.3467L36.0811 15.2176C35.9775 15.0383 36.0389 14.8089 36.2183 14.7054C36.3975 14.6018 36.6271 14.6632 36.7305 14.8426L37.3824 15.9717C37.4861 16.151 37.4246 16.3804 37.2453 16.484C37.1863 16.5181 37.1218 16.5343 37.0582 16.5343Z" fill="black"/>
<path fill-rule="evenodd" clip-rule="evenodd" d="M44.5055 16.5343C44.4419 16.5343 44.3774 16.5181 44.3184 16.484C44.139 16.3804 44.0776 16.1511 44.1812 15.9717L44.8332 14.8426C44.9366 14.6632 45.166 14.6017 45.3454 14.7054C45.5247 14.809 45.5862 15.0384 45.4826 15.2176L44.8306 16.3467C44.7612 16.467 44.6351 16.5343 44.5055 16.5343Z" fill="black"/>
<path fill-rule="evenodd" clip-rule="evenodd" d="M26.0827 23.4786H24.4443C24.2479 23.4786 24.0847 23.327 24.0702 23.1312L24.0037 22.2295C23.505 22.0619 23.0436 21.7951 22.6476 21.4455L21.8324 21.8391C21.6553 21.9244 21.4427 21.859 21.3445 21.6889L20.5253 20.2701C20.4272 20.1 20.4768 19.883 20.6392 19.7725L21.3873 19.2637C21.3355 19.0066 21.3094 18.7442 21.3094 18.4805C21.3094 18.2168 21.3356 17.9543 21.3873 17.6973L20.6393 17.1884C20.4769 17.078 20.4273 16.8609 20.5255 16.6908L21.3446 15.2721C21.4428 15.102 21.6555 15.0365 21.8325 15.1219L22.6477 15.5155C23.0438 15.1659 23.5051 14.8991 24.0038 14.7315L24.0703 13.8298C24.0848 13.6338 24.2479 13.4824 24.4444 13.4824L26.0827 13.4825C26.279 13.4825 26.4422 13.6341 26.4567 13.8299L26.5233 14.7316C27.0219 14.8993 27.4833 15.166 27.8793 15.5156L28.6946 15.122C28.8716 15.0366 29.0842 15.1022 29.1825 15.2722L30.0016 16.6909C30.0997 16.8611 30.0501 17.0781 29.8877 17.1885L29.1398 17.6974C29.1915 17.9544 29.2176 18.2168 29.2176 18.4806C29.2176 18.7443 29.1915 19.0067 29.1398 19.2638L29.8878 19.7726C30.0502 19.8831 30.0998 20.1001 30.0017 20.2702L29.1826 21.689C29.0844 21.8591 28.8716 21.9247 28.6947 21.8392L27.8795 21.4456C27.4834 21.7952 27.0221 22.062 26.5234 22.2296L26.4568 23.1314C26.4421 23.327 26.279 23.4786 26.0827 23.4786ZM24.7926 22.7287H25.7343L25.7943 21.9167C25.8061 21.7566 25.9184 21.6219 26.0737 21.5814C26.629 21.4368 27.137 21.1431 27.5428 20.7321C27.6556 20.6181 27.8285 20.5882 27.9727 20.6579L28.707 21.0125L29.1778 20.197L28.5044 19.7389C28.3718 19.6487 28.3112 19.4844 28.3536 19.3298C28.4292 19.054 28.4675 18.7684 28.4675 18.4808C28.4675 18.193 28.4292 17.9073 28.3536 17.6318C28.3112 17.4773 28.3717 17.3128 28.5043 17.2227L29.1777 16.7646L28.7069 15.949L27.9726 16.3036C27.8283 16.3733 27.6556 16.3436 27.5428 16.2294C27.1368 15.8184 26.6288 15.5247 26.0736 15.3801C25.9184 15.3397 25.806 15.2049 25.7942 15.0448L25.7342 14.2328H24.7925L24.7326 15.0448C24.7207 15.2049 24.6084 15.3397 24.4531 15.3801C23.8979 15.5247 23.3899 15.8184 22.984 16.2294C22.8713 16.3436 22.6986 16.3735 22.5541 16.3036L21.82 15.949L21.3491 16.7646L22.0226 17.2227C22.1551 17.3128 22.2157 17.4773 22.1733 17.6318C22.0978 17.9074 22.0594 18.1931 22.0594 18.4808C22.0594 18.7684 22.0977 19.054 22.1733 19.3298C22.2157 19.4844 22.155 19.6488 22.0225 19.7389L21.3491 20.197L21.8199 21.0125L22.5541 20.6579C22.6985 20.5884 22.8712 20.618 22.9839 20.7321C23.3898 21.1431 23.8978 21.4368 24.4531 21.5814C24.6084 21.6219 24.7207 21.7567 24.7325 21.9167L24.7926 22.7287Z" fill="black"/>
<path fill-rule="evenodd" clip-rule="evenodd" d="M25.2634 20.9108C23.9235 20.9108 22.8334 19.8207 22.8334 18.4807C22.8334 17.1408 23.9235 16.0507 25.2634 16.0507C26.6035 16.0507 27.6936 17.1408 27.6936 18.4807C27.6936 19.8207 26.6035 20.9108 25.2634 20.9108ZM25.2634 16.8006C24.3371 16.8006 23.5834 17.5543 23.5834 18.4808C23.5834 19.4072 24.3371 20.161 25.2634 20.161C26.1899 20.161 26.9436 19.4072 26.9436 18.4808C26.9436 17.5543 26.1899 16.8006 25.2634 16.8006Z" fill="black"/>
</svg>
