<svg width="95" height="52" viewBox="0 0 95 52" fill="none" xmlns="http://www.w3.org/2000/svg">
<g clip-path="url(#clip0_534_2142)">
<path d="M52.1491 18.3754L41.0601 20.7694C40.8546 20.8185 40.6609 20.9076 40.49 21.0317C40.1435 21.273 39.906 21.6412 39.8292 22.0565C39.7866 22.2633 39.7853 22.4766 39.8254 22.684L42.2194 33.773C42.2641 33.9798 42.349 34.1758 42.4694 34.3497C42.5897 34.5237 42.7432 34.6722 42.921 34.7869C43.28 35.0184 43.7164 35.0979 44.134 35.0077C44.5516 34.9175 44.9163 34.6652 45.1479 34.3061C45.3794 33.9471 45.4589 33.5107 45.3687 33.0931L43.7799 25.7878L54.0136 32.3874C54.3712 32.618 54.8057 32.6971 55.2216 32.6073C55.6376 32.5175 56.0008 32.2661 56.2314 31.9086C56.462 31.551 56.5411 31.1164 56.4513 30.7005C56.3615 30.2846 56.1102 29.9214 55.7526 29.6907L45.519 23.0912L52.829 21.5247C53.0362 21.4808 53.2327 21.3964 53.4071 21.2762C53.5815 21.1561 53.7304 21.0026 53.8452 20.8246C53.96 20.6466 54.0384 20.4476 54.0759 20.2392C54.1134 20.0307 54.1092 19.8169 54.0637 19.6101C54.0199 19.4029 53.9354 19.2064 53.8153 19.032C53.6951 18.8576 53.5416 18.7087 53.3636 18.5939C53.1856 18.4791 52.9867 18.4007 52.7782 18.3632C52.5698 18.3257 52.356 18.3298 52.1491 18.3754Z" fill="black"/>
</g>
<rect x="0.401089" y="0.401089" width="94.1978" height="51.1978" rx="25.5989" stroke="black" stroke-width="0.802178"/>
<defs>
<clipPath id="clip0_534_2142">
<rect width="95" height="52" rx="26" fill="white"/>
</clipPath>
</defs>
</svg>
