<svg width="128" height="99" viewBox="0 0 128 99" fill="none" xmlns="http://www.w3.org/2000/svg">
<mask id="path-1-inside-1_531_6764" fill="white">
<path d="M0 0H78.5C105.838 0 128 22.1619 128 49.5C128 76.8381 105.838 99 78.5 99H0V0Z"/>
</mask>
<path d="M0 -1H78.5C106.39 -1 129 21.6096 129 49.5H127C127 22.7142 105.286 1 78.5 1H0V-1ZM129 49.5C129 77.3904 106.39 100 78.5 100H0V98H78.5C105.286 98 127 76.2858 127 49.5H129ZM0 99V0V99ZM78.5 -1C106.39 -1 129 21.6096 129 49.5C129 77.3904 106.39 100 78.5 100V98C105.286 98 127 76.2858 127 49.5C127 22.7142 105.286 1 78.5 1V-1Z" fill="black" mask="url(#path-1-inside-1_531_6764)"/>
<g opacity="0.3">
<path d="M65.42 61.4199L75.42 51.4199C75.602 51.2297 75.7448 51.0054 75.84 50.7599C76.04 50.273 76.04 49.7268 75.84 49.2399C75.7448 48.9944 75.602 48.7701 75.42 48.5799L65.42 38.5799C65.2335 38.3934 65.0121 38.2455 64.7685 38.1446C64.5248 38.0436 64.2637 37.9917 64 37.9917C63.4674 37.9917 62.9566 38.2033 62.58 38.5799C62.2034 38.9565 61.9918 39.4673 61.9918 39.9999C61.9918 40.5325 62.2034 41.0433 62.58 41.4199L69.18 47.9999H54C53.4695 47.9999 52.9608 48.2106 52.5858 48.5857C52.2107 48.9607 52 49.4694 52 49.9999C52 50.5303 52.2107 51.039 52.5858 51.4141C52.9608 51.7892 53.4695 51.9999 54 51.9999H69.18L62.58 58.5799C62.3925 58.7658 62.2437 58.987 62.1422 59.2307C62.0406 59.4744 61.9884 59.7359 61.9884 59.9999C61.9884 60.2639 62.0406 60.5253 62.1422 60.769C62.2437 61.0128 62.3925 61.234 62.58 61.4199C62.7659 61.6073 62.9871 61.7561 63.2308 61.8577C63.4745 61.9592 63.7359 62.0115 64 62.0115C64.264 62.0115 64.5254 61.9592 64.7691 61.8577C65.0128 61.7561 65.234 61.6073 65.42 61.4199Z" fill="black"/>
</g>
</svg>
