<svg width="128" height="99" viewBox="0 0 128 99" fill="none" xmlns="http://www.w3.org/2000/svg">
<path d="M49.5 0.5H127.5V98.5H49.5C22.438 98.5 0.5 76.562 0.5 49.5C0.5 22.438 22.438 0.5 49.5 0.5Z" stroke="black"/>
<path d="M62.58 38.5801L52.58 48.5801C52.398 48.7703 52.2552 48.9946 52.16 49.2401C51.96 49.727 51.96 50.2732 52.16 50.7601C52.2552 51.0056 52.398 51.2299 52.58 51.4201L62.58 61.4201C62.7665 61.6066 62.9879 61.7545 63.2315 61.8554C63.4752 61.9564 63.7363 62.0083 64 62.0083C64.5326 62.0083 65.0434 61.7967 65.42 61.4201C65.7966 61.0435 66.0082 60.5327 66.0082 60.0001C66.0082 59.4675 65.7966 58.9567 65.42 58.5801L58.82 52.0001H74C74.5305 52.0001 75.0392 51.7894 75.4142 51.4143C75.7893 51.0393 76 50.5306 76 50.0001C76 49.4697 75.7893 48.961 75.4142 48.5859C75.0392 48.2108 74.5305 48.0001 74 48.0001H58.82L65.42 41.4201C65.6075 41.2342 65.7563 41.013 65.8578 40.7693C65.9594 40.5256 66.0116 40.2641 66.0116 40.0001C66.0116 39.7361 65.9594 39.4747 65.8578 39.231C65.7563 38.9872 65.6075 38.766 65.42 38.5801C65.2341 38.3927 65.0129 38.2439 64.7692 38.1423C64.5255 38.0408 64.2641 37.9885 64 37.9885C63.736 37.9885 63.4746 38.0408 63.2309 38.1423C62.9872 38.2439 62.766 38.3927 62.58 38.5801Z" fill="black"/>
</svg>
